# xmcd CD database file
#
# Track frame offsets:
#	150
#	20667
#	35687
#	67007
#	85235
#
# Disc length: 1397 seconds
#
# Revision: 7
# Processed by: cddbd v1.5.2PL0 Copyright (c) Steve Scherf et al.
# Submitted via: CDex 1.70beta3
#
DISCID=3f057305
DTITLE=スピッツ - オーロラになれなかった人のために
DYEAR=1992
DGENRE=New Age
TTITLE0=魔法
TTITLE1=田舎の生活
TTITLE2=ナイフ
TTITLE3=海ねこ
TTITLE4=涙
EXTD=YEAR: 1992
EXTT0=
EXTT1=
EXTT2=
EXTT3=
EXTT4=
PLAYORDER=
